<svg xmlns="http://www.w3.org/2000/svg" viewBox="0 0 16 16" shape-rendering="crispEdges"><path fill="#818b38" d="M8 2h1v1H8z"/><path fill="#818b38" d="M12 2h1v1H12z"/><path fill="#272a1e" d="M4 3h1v1H4z"/><path fill="#272a1e" d="M10 3h3v1H10z"/><path fill="#818b38" d="M13 3h1v1H13z"/><path fill="#0a1010" d="M14 3h1v1H14z"/><path fill="#272a1e" d="M2 4h1v1H2z"/><path fill="#818b38" d="M3 4h2v1H3z"/><path fill="#272a1e" d="M8 4h1v1H8z"/><path fill="#818b38" d="M11 4h1v1H11z"/><path fill="#272a1e" d="M12 4h1v1H12z"/><path fill="#818b38" d="M13 4h2v1H13z"/><path fill="#fbfaf8" d="M15 4h1v1H15z"/><path fill="#3c4d25" d="M2 5h2v1H2z"/><path fill="#818b38" d="M9 5h1v1H9z"/><path fill="#272a1e" d="M10 5h1v1H10z"/><path fill="#818b38" d="M11 5h1v1H11z"/><path fill="#835637" d="M12 5h2v1H12z"/><path fill="#818b38" d="M14 5h1v1H14z"/><path fill="#272a1e" d="M15 5h1v1H15z"/><path fill="#3c4d25" d="M0 6h1v1H0z"/><path fill="#272a1e" d="M1 6h1v1H1z"/><path fill="#0a1010" d="M2 6h1v1H2z"/><path fill="#818b38" d="M5 6h1v1H5z"/><path fill="#818b38" d="M8 6h1v1H8z"/><path fill="#3c4d25" d="M9 6h1v1H9z"/><path fill="#818b38" d="M10 6h1v1H10z"/><path fill="#272a1e" d="M11 6h1v1H11z"/><path fill="#835637" d="M12 6h1v1H12z"/><path fill="#818b38" d="M13 6h1v1H13z"/><path fill="#835637" d="M14 6h1v1H14z"/><path fill="#3c4d25" d="M0 7h1v1H0z"/><path fill="#818b38" d="M1 7h2v1H1z"/><path fill="#272a1e" d="M6 7h2v1H6z"/><path fill="#3c4d25" d="M8 7h1v1H8z"/><path fill="#818b38" d="M9 7h2v1H9z"/><path fill="#0a1010" d="M11 7h1v1H11z"/><path fill="#818b38" d="M12 7h1v1H12z"/><path fill="#b0bd4d" d="M13 7h2v1H13z"/><path fill="#3c4d25" d="M0 8h3v1H0z"/><path fill="#0a1010" d="M6 8h1v1H6z"/><path fill="#835637" d="M7 8h1v1H7z"/><path fill="#3c4d25" d="M8 8h1v1H8z"/><path fill="#272a1e" d="M9 8h1v1H9z"/><path fill="#818b38" d="M10 8h2v1H10z"/><path fill="#b0bd4d" d="M12 8h2v1H12z"/><path fill="#0a1010" d="M14 8h1v1H14z"/><path fill="#272a1e" d="M1 9h1v1H1z"/><path fill="#3c4d25" d="M2 9h1v1H2z"/><path fill="#0a1010" d="M3 9h1v1H3z"/><path fill="#272a1e" d="M4 9h1v1H4z"/><path fill="#3c4d25" d="M5 9h1v1H5z"/><path fill="#835637" d="M6 9h1v1H6z"/><path fill="#818b38" d="M7 9h1v1H7z"/><path fill="#835637" d="M8 9h2v1H8z"/><path fill="#3c4d25" d="M10 9h1v1H10z"/><path fill="#0a1010" d="M11 9h1v1H11z"/><path fill="#fbfaf8" d="M12 9h2v1H12z"/><path fill="#3c4d25" d="M14 9h1v1H14z"/><path fill="#b0bd4d" d="M1 10h1v1H1z"/><path fill="#3c4d25" d="M2 10h1v1H2z"/><path fill="#0a1010" d="M3 10h1v1H3z"/><path fill="#272a1e" d="M4 10h1v1H4z"/><path fill="#0a1010" d="M5 10h1v1H5z"/><path fill="#835637" d="M6 10h2v1H6z"/><path fill="#0a1010" d="M8 10h2v1H8z"/><path fill="#835637" d="M10 10h2v1H10z"/><path fill="#b0bd4d" d="M12 10h1v1H12z"/><path fill="#272a1e" d="M13 10h1v1H13z"/><path fill="#818b38" d="M2 11h1v1H2z"/><path fill="#3c4d25" d="M4 11h1v1H4z"/><path fill="#835637" d="M5 11h2v1H5z"/><path fill="#272a1e" d="M8 11h2v1H8z"/><path fill="#818b38" d="M10 11h1v1H10z"/><path fill="#3c4d25" d="M11 11h1v1H11z"/><path fill="#0a1010" d="M12 11h1v1H12z"/><path fill="#3c4d25" d="M13 11h1v1H13z"/><path fill="#818b38" d="M14 11h1v1H14z"/><path fill="#3c4d25" d="M3 12h1v1H3z"/><path fill="#835637" d="M4 12h1v1H4z"/><path fill="#0a1010" d="M5 12h1v1H5z"/><path fill="#b0bd4d" d="M7 12h1v1H7z"/><path fill="#3c4d25" d="M8 12h1v1H8z"/><path fill="#3c4d25" d="M10 12h1v1H10z"/><path fill="#835637" d="M11 12h1v1H11z"/><path fill="#0a1010" d="M13 12h1v1H13z"/><path fill="#835637" d="M14 12h1v1H14z"/><path fill="#835637" d="M3 13h1v1H3z"/><path fill="#3c4d25" d="M4 13h1v1H4z"/><path fill="#835637" d="M5 13h1v1H5z"/><path fill="#0a1010" d="M8 13h1v1H8z"/><path fill="#835637" d="M9 13h1v1H9z"/><path fill="#fbfaf8" d="M11 13h1v1H11z"/><path fill="#835637" d="M12 13h1v1H12z"/><path fill="#fbfaf8" d="M14 13h1v1H14z"/><path fill="#835637" d="M15 13h1v1H15z"/></svg>