<svg xmlns="http://www.w3.org/2000/svg" viewBox="0 0 96 96" shape-rendering="crispEdges">
 <defs><filter id="g"><feGaussianBlur stdDeviation="1.5"/></filter></defs>
 <g transform="translate(-7.68 -7.68) scale(1.16)"><image href="../embercub.png" x="0" y="0" width="96" height="96" image-rendering="pixelated"/></g>
 <g style="color:#ff9a39"><g fill="#ff8b2f" stroke="#ffdf74" stroke-width="3" opacity="1">
 <path d="M18 68 C8 55 16 47 23 40 C21 54 34 56 27 70 Z"/><path d="M72 34 C68 22 79 16 83 8 C84 20 92 25 83 38 Z"/>
 <path d="M43 18 C38 8 48 3 51 0 C54 8 61 12 56 22 Z"/><path d="M81 69 C90 55 94 66 94 76 C88 74 83 75 81 69 Z"/></g>
 <circle cx="48" cy="48" r="42" fill="none" stroke="currentColor" stroke-width="2" opacity=".22"/>
 <circle cx="48" cy="48" r="36" fill="none" stroke="currentColor" stroke-width="1.5" opacity=".16"/></g>
 </svg>