<svg xmlns="http://www.w3.org/2000/svg" viewBox="0 0 128 128"><ellipse cx="64" cy="112" rx="38" ry="7" fill="#000" opacity=".2"/><path d="M46 39C27 32 24 18 30 8c4 13 17 14 23 27M81 38c8-19 24-22 32-14-15 3-17 16-27 22" fill="#c9ef85" stroke="#203e28" stroke-width="5"/><ellipse cx="65" cy="76" rx="43" ry="32" fill="#2f6f3b" stroke="#203e28" stroke-width="6"/><path d="M35 73C40 47 87 42 97 72c-6 22-55 27-62 1Z" fill="#5fae4e" stroke="#203e28" stroke-width="5"/><path d="M47 58 61 48l16 9 9 15-12 16H55L43 72Z" fill="#c9ef85" stroke="#203e28" stroke-width="4"/><circle cx="64" cy="42" r="20" fill="#5fae4e" stroke="#203e28" stroke-width="6"/><rect x="54" y="39" width="6" height="6" fill="#fff"/><rect x="69" y="39" width="6" height="6" fill="#fff"/><rect x="56" y="42" width="3" height="3" fill="#203e28"/><rect x="71" y="42" width="3" height="3" fill="#203e28"/><path d="M27 84 14 94l19 1M101 84l14 10-19 2" fill="#5fae4e" stroke="#203e28" stroke-width="5"/><path d="M43 84 55 95l9-10 10 10 12-11" fill="none" stroke="#c9ef85" stroke-width="4"/></svg>