<svg xmlns="http://www.w3.org/2000/svg" viewBox="0 0 128 128"><ellipse cx="64" cy="112" rx="38" ry="7" fill="#000" opacity=".2"/><path d="M34 40 38 12l14 20L63 7l11 25 18-18-2 31" fill="#d7a8ff" stroke="#21172f" stroke-width="5"/><path d="M102 77c19-8 22-24 10-32 1 13-10 18-18 22" fill="#33274f" stroke="#21172f" stroke-width="4"/><path d="M31 82C27 58 39 38 60 33 82 29 99 45 98 72c0 22-16 34-35 34-19 0-29-7-32-24Z" fill="#68448f" stroke="#21172f" stroke-width="6"/><path d="M42 45 35 23l18 14M83 43l11-20-17 14" fill="#33274f" stroke="#21172f" stroke-width="5"/><path d="M35 89 27 108M88 89l9 19" stroke="#21172f" stroke-width="6"/><path d="M96 83c17 2 21 15 11 25-3-10-11-13-20-12" fill="#33274f" stroke="#21172f" stroke-width="5"/><rect x="50" y="55" width="7" height="7" rx="2" fill="#fff"/><rect x="72" y="55" width="7" height="7" rx="2" fill="#fff"/><rect x="53" y="58" width="3" height="3" fill="#21172f"/><rect x="75" y="58" width="3" height="3" fill="#21172f"/><path d="M58 71l6 5 6-5" fill="none" stroke="#21172f" stroke-width="4" stroke-linecap="round"/><path d="M44 83 55 94l9-9 10 9 11-11" fill="none" stroke="#d7a8ff" stroke-width="4"/></svg>