<svg xmlns="http://www.w3.org/2000/svg" viewBox="0 0 128 128"><ellipse cx="64" cy="112" rx="35" ry="7" fill="#000" opacity=".2"/><path d="M33 41 38 10l15 22L64 5l11 27 19-20-3 34" fill="#e0b5ff" stroke="#21172f" stroke-width="5"/><path d="M104 78c20-8 23-25 10-34 1 14-11 19-19 24" fill="#33274f" stroke="#21172f" stroke-width="4"/><path d="M34 83C31 58 40 35 60 29 81 22 96 39 96 64c1 19-9 37-30 42-18 3-29-7-32-23Z" fill="#68448f" stroke="#21172f" stroke-width="6"/><path d="M44 43 38 20l17 14 10-23 9 23 18-13-7 26" fill="#33274f" stroke="#21172f" stroke-width="5"/><path d="M35 70C18 61 13 43 22 31c9 13 17 18 26 22M91 70c17-9 24-27 15-39-9 13-17 18-26 22" fill="#e0b5ff" stroke="#21172f" stroke-width="5"/><path d="M91 84c19 4 25 17 14 29-2-12-11-15-22-15" fill="#33274f" stroke="#21172f" stroke-width="5"/><rect x="50" y="57" width="7" height="7" rx="2" fill="#fff"/><rect x="72" y="57" width="7" height="7" rx="2" fill="#fff"/><rect x="53" y="60" width="3" height="3" fill="#21172f"/><rect x="75" y="60" width="3" height="3" fill="#21172f"/><path d="M58 73l6 5 6-5" fill="none" stroke="#21172f" stroke-width="4" stroke-linecap="round"/></svg>