<svg xmlns="http://www.w3.org/2000/svg" viewBox="0 0 160 160"><defs><radialGradient id="g"><stop stop-color="#fffbd0"/><stop offset=".68" stop-color="#e6d96e"/><stop offset="1" stop-color="#9a7f2b"/></radialGradient></defs><ellipse cx="80" cy="139" rx="36" ry="8" fill="#000" opacity=".15"/><circle cx="80" cy="82" r="39" fill="url(#g)" stroke="#8f7729" stroke-width="4"/><path d="M50 55 62 28l16 28M110 55 98 28 82 56" fill="#f5e995" stroke="#9a812e" stroke-width="3"/><ellipse cx="66" cy="82" rx="6" ry="9" fill="#5d4d19"/><ellipse cx="94" cy="82" rx="6" ry="9" fill="#5d4d19"/><path d="m80 91 8 7-8 4-8-4z" fill="#7a641f"/><path d="M64 105q16 10 32 0" fill="none" stroke="#7a641f" stroke-width="4" stroke-linecap="round"/><circle cx="80" cy="82" r="52" fill="none" stroke="#fff5ae" stroke-width="5" opacity=".35"/><path d="M80 8v22M80 134v18M8 82h22M130 82h22M29 31l16 16M115 115l16 16M131 31l-16 16M45 115l-16 16" stroke="#fff5ae" stroke-width="5" stroke-linecap="round" opacity=".75"/></svg>