<svg xmlns="http://www.w3.org/2000/svg" viewBox="0 0 128 128"><ellipse cx="65" cy="72" rx="43" ry="31" fill="#6a9b4f" stroke="#294229" stroke-width="5"/><path d="M34 70c5-28 18-42 35-42 20 0 34 17 34 43-20-10-48-10-69-1z" fill="#486f3f" stroke="#294229" stroke-width="5"/><path d="M52 40c4-16 12-24 21-26-2 13 2 19 10 25M68 35c9-11 18-15 28-12-8 8-10 15-7 22" fill="#7ebc58" stroke="#294229" stroke-width="5" stroke-linecap="round"/><circle cx="43" cy="70" r="5" fill="#17251b"/><circle cx="63" cy="70" r="5" fill="#17251b"/><path d="M46 85c7 5 15 5 22 0" fill="none" stroke="#294229" stroke-width="4" stroke-linecap="round"/><path d="M25 88 13 98l18 4M91 96l18 7-13 10" fill="#5d8449" stroke="#294229" stroke-width="5" stroke-linejoin="round"/></svg>