<svg xmlns="http://www.w3.org/2000/svg" viewBox="0 0 160 160"><defs><radialGradient id="g" cx="50%" cy="36%"><stop stop-color="#fff6b5"/><stop offset=".7" stop-color="#ffd346"/><stop offset="1" stop-color="#ad7413"/></radialGradient></defs><ellipse cx="80" cy="139" rx="36" ry="8" fill="#000" opacity=".15"/><path d="M46 48 63 17l14 35M114 48 97 17 83 52" fill="#9b6b14" stroke="#77500f" stroke-width="3"/><circle cx="80" cy="80" r="38" fill="url(#g)" stroke="#77550f" stroke-width="4"/><ellipse cx="66" cy="80" rx="6" ry="9" fill="#3b2a0d"/><ellipse cx="94" cy="80" rx="6" ry="9" fill="#3b2a0d"/><path d="m80 89 8 7-8 4-8-4z" fill="#6a4f12"/><path d="M66 103q14 8 28 0" fill="none" stroke="#6a4f12" stroke-width="4" stroke-linecap="round"/><path d="M25 79 43 61l3 18 17-13-7 23 19-4M135 79l-18-18-3 18-17-13 7 23-19-4" fill="none" stroke="#fff2a1" stroke-width="5" stroke-linejoin="round"/></svg>