<svg xmlns="http://www.w3.org/2000/svg" viewBox="0 0 160 160"><defs><radialGradient id="g" cx="50%" cy="38%"><stop stop-color="#c8f6ae"/><stop offset=".7" stop-color="#5cad55"/><stop offset="1" stop-color="#254d28"/></radialGradient></defs><ellipse cx="80" cy="139" rx="36" ry="8" fill="#000" opacity=".15"/><path d="M47 49 63 20l15 32M113 49 97 20 82 52" fill="#315d32" stroke="#1e4021" stroke-width="3"/><circle cx="80" cy="80" r="38" fill="url(#g)" stroke="#1f4423" stroke-width="4"/><path d="M37 61c16 1 27-6 35-17-2 17-13 29-31 34zM123 61c-16 1-27-6-35-17 2 17 13 29 31 34z" fill="#8ed970"/><ellipse cx="66" cy="80" rx="6" ry="9" fill="#18321a"/><ellipse cx="94" cy="80" rx="6" ry="9" fill="#18321a"/><path d="m80 89 8 7-8 4-8-4z" fill="#2a4829"/><path d="M65 103q15 10 30 0" fill="none" stroke="#2a4829" stroke-width="4" stroke-linecap="round"/><path d="M80 35c10-4 18-11 25-21-2 16-10 27-23 34zM79 35c-9-7-15-15-18-24 11 6 20 12 25 21z" fill="#70c957"/></svg>